<?xml version="1.0" standalone="no"?>
<!DOCTYPE svg PUBLIC "-//W3C//DTD SVG 20010904//EN"
 "http://www.w3.org/TR/2001/REC-SVG-20010904/DTD/svg10.dtd">
<svg version="1.0" xmlns="http://www.w3.org/2000/svg"
 width="1642.000000pt" height="1642.000000pt" viewBox="0 0 1642.000000 1642.000000"
 preserveAspectRatio="xMidYMid meet">
<metadata>
Created by potrace 1.14, written by Peter Selinger 2001-2017
</metadata>
<g transform="translate(0.000000,1642.000000) scale(0.100000,-0.100000)"
fill="#000000" stroke="none">
<path d="M755 8735 l0 -4375 312 0 313 0 0 3727 c0 2226 4 3723 9 3718 5 -6
19 -28 31 -50 22 -40 199 -345 595 -1025 120 -206 226 -388 235 -405 9 -16 71
-122 137 -235 66 -113 179 -306 250 -430 72 -124 140 -241 151 -260 12 -19 27
-46 35 -60 7 -14 111 -191 229 -395 119 -203 225 -386 236 -405 24 -42 150
-258 297 -510 59 -102 117 -201 128 -220 24 -43 144 -249 253 -435 45 -77 92
-158 104 -180 12 -22 53 -92 90 -155 37 -63 77 -131 87 -150 11 -19 51 -87 88
-150 37 -63 77 -133 90 -155 12 -22 55 -96 95 -165 40 -69 105 -179 143 -245
38 -66 77 -133 87 -150 10 -16 55 -95 102 -175 46 -80 108 -186 137 -237 l54
-91 158 0 c150 1 158 2 168 22 6 12 24 44 40 71 16 28 36 61 44 75 12 23 48
85 221 382 31 54 82 142 113 195 31 54 64 112 74 128 11 17 22 37 26 45 3 8
25 47 48 85 39 64 84 143 153 265 14 25 36 62 49 82 12 21 23 41 23 45 0 3 6
14 14 22 7 9 24 36 37 61 14 25 43 77 66 115 44 74 279 480 311 536 30 53 365
632 738 1276 11 18 46 78 78 135 33 57 80 139 106 183 26 44 90 154 143 245
52 91 104 181 115 200 57 97 107 186 111 195 2 6 7 12 10 15 3 3 15 22 26 42
11 20 44 79 74 130 30 51 62 107 71 123 10 17 32 55 50 85 18 30 44 75 58 100
14 25 33 59 43 75 10 17 37 64 61 105 23 41 49 87 58 101 8 15 98 170 199 345
101 176 199 342 218 371 18 28 33 54 33 57 0 3 14 29 31 58 18 29 65 112 107
183 41 72 80 138 87 148 11 16 13 -199 15 -1180 0 -659 3 -2375 5 -3813 2
-1438 -1 -2658 -5 -2710 -15 -154 -20 -204 -24 -230 -3 -14 -7 -44 -10 -67 -3
-22 -8 -52 -10 -65 -3 -12 -8 -35 -10 -50 -9 -57 -49 -206 -76 -289 -156 -464
-423 -757 -841 -923 -72 -28 -265 -80 -339 -91 -173 -25 -201 -27 -375 -30
-182 -2 -339 12 -502 45 -110 22 -322 86 -338 101 -5 5 -15 9 -22 9 -36 0
-310 147 -428 228 -232 162 -469 400 -647 652 l-43 61 -63 -68 c-75 -81 -88
-95 -220 -241 -56 -62 -102 -114 -102 -117 0 -12 161 -231 220 -299 44 -51
220 -229 280 -282 96 -85 254 -197 405 -287 181 -108 529 -253 674 -282 9 -2
52 -12 96 -23 66 -17 196 -42 240 -47 6 0 46 -5 90 -9 44 -5 91 -10 105 -12
14 -2 106 -3 205 -4 246 0 361 8 562 41 149 24 143 23 223 44 733 187 1212
646 1441 1381 17 55 33 110 35 123 3 14 7 28 9 31 5 8 40 179 54 265 17 99 20
117 26 175 3 30 9 73 12 95 3 22 7 607 8 1300 3 1293 4 1375 18 1374 5 0 17
11 27 23 20 26 78 86 505 524 160 163 328 335 374 383 46 47 172 176 280 287
108 110 331 339 496 508 l300 308 29 -34 c16 -18 45 -51 65 -74 20 -22 61 -69
91 -104 30 -34 62 -71 70 -80 8 -9 40 -46 70 -80 129 -148 287 -330 340 -390
59 -67 183 -209 275 -315 29 -33 131 -150 227 -260 96 -110 185 -213 199 -229
13 -16 29 -34 36 -41 7 -7 43 -48 80 -91 37 -44 84 -97 103 -118 52 -57 50
-56 115 -131 33 -39 62 -72 65 -75 3 -3 48 -54 100 -115 52 -60 109 -126 126
-145 17 -19 98 -111 179 -205 81 -93 151 -172 154 -175 3 -3 30 -34 60 -70 30
-36 62 -72 70 -81 9 -9 27 -29 40 -45 26 -32 128 -148 177 -204 17 -19 116
-132 219 -250 103 -118 202 -231 219 -250 17 -19 60 -68 94 -108 34 -40 75
-87 91 -105 15 -18 77 -88 137 -157 60 -69 113 -130 119 -136 5 -6 55 -63 110
-127 l100 -116 389 -1 389 0 -19 23 c-22 24 -130 150 -209 241 -27 33 -55 64
-60 70 -6 6 -107 124 -225 261 -118 138 -217 252 -220 255 -3 3 -43 50 -90
105 -46 55 -102 120 -125 145 -22 25 -62 72 -90 104 -27 32 -64 75 -81 95 -17
20 -105 122 -194 226 -90 105 -174 201 -186 215 -13 14 -85 97 -160 185 -75
88 -148 174 -163 190 -14 17 -43 50 -65 75 -21 25 -62 72 -90 105 -54 62 -167
193 -486 565 -102 118 -189 220 -195 226 -30 33 -123 141 -140 163 -11 14 -25
31 -31 36 -6 6 -94 107 -195 225 -101 118 -196 229 -210 245 -15 17 -145 167
-289 335 -144 168 -285 332 -314 365 -63 73 -118 136 -131 151 -48 55 -113
132 -126 149 -19 23 -49 -10 445 499 127 131 264 273 305 315 40 42 186 193
325 335 138 143 275 285 305 315 29 31 122 126 205 212 228 235 675 696 726
749 25 26 156 161 291 301 136 140 280 288 320 330 399 414 581 601 783 807
l128 132 -389 0 -389 0 -201 -207 c-110 -115 -240 -248 -288 -298 -117 -120
-587 -604 -700 -720 -49 -51 -200 -206 -335 -345 -135 -139 -283 -291 -329
-339 -46 -47 -201 -207 -345 -355 -143 -147 -287 -296 -320 -330 -32 -33 -140
-145 -240 -247 -170 -174 -626 -644 -802 -826 -43 -44 -191 -197 -329 -338
-137 -142 -281 -290 -320 -330 -159 -164 -597 -615 -683 -704 -52 -53 -199
-204 -327 -336 -185 -191 -239 -241 -259 -241 l-26 0 -1 986 c0 1037 -7 4620
-8 4633 -1 4 -119 7 -263 7 l-263 -1 -315 -546 c-173 -301 -334 -578 -356
-617 -23 -39 -142 -244 -264 -456 -122 -212 -280 -484 -350 -605 -164 -282
-306 -529 -336 -582 -13 -23 -54 -93 -90 -155 -70 -118 -85 -144 -141 -243
-19 -33 -38 -67 -44 -75 -10 -16 -126 -216 -165 -287 -13 -23 -53 -92 -89
-153 -36 -61 -65 -115 -65 -121 0 -5 -4 -9 -10 -9 -5 0 -10 -4 -10 -9 0 -5
-15 -36 -34 -68 -19 -32 -172 -296 -340 -588 -168 -291 -310 -537 -316 -545
-8 -13 -34 -59 -130 -225 -106 -183 -207 -358 -226 -390 -13 -22 -45 -77 -71
-123 -27 -46 -52 -91 -58 -100 -15 -26 -100 -173 -123 -212 -10 -19 -43 -75
-72 -125 -29 -49 -64 -110 -78 -135 -13 -25 -28 -49 -32 -55 -5 -5 -19 -30
-32 -55 -72 -132 -163 -279 -169 -273 -3 5 -20 33 -36 63 -32 58 -131 230
-243 420 -37 63 -78 135 -92 160 -14 25 -74 128 -133 230 -200 345 -293 505
-311 537 -31 53 -235 406 -334 578 -51 88 -101 174 -110 190 -40 71 -793 1369
-811 1398 -10 18 -22 39 -26 47 -3 8 -25 47 -48 85 -42 70 -106 180 -142 245
-11 19 -31 53 -44 76 -13 22 -62 106 -109 188 -47 81 -93 161 -104 179 -10 18
-52 91 -93 162 -41 72 -78 137 -83 145 -29 49 -130 221 -155 265 -16 29 -255
443 -530 919 l-500 865 -270 1 -270 0 0 -4375z"/>
</g>
</svg>
